<svg xmlns="http://www.w3.org/2000/svg" width="25" height="25" viewBox="0 0 25 25"><g fill="none"><g fill="#EA4C89"><path d="M12.8 12.5C12.9 12.5 12.9 12.4 13 12.4 12.9 12.2 12.7 11.9 12.6 11.7 10.2 12.4 7.8 12.4 7.4 12.4 7.4 12.4 7.4 12.5 7.4 12.5 7.4 13.7 7.8 14.9 8.6 15.8 8.9 15.4 10.3 13.3 12.8 12.5ZM9.4 16.6C10.3 17.2 11.4 17.6 12.5 17.6 13.2 17.6 13.8 17.5 14.4 17.2 14.4 16.7 14.1 15.2 13.4 13.4 10.6 14.4 9.6 16.2 9.4 16.6ZM15.8 8.6C14.9 7.8 13.7 7.4 12.5 7.4 12.1 7.4 11.8 7.4 11.4 7.5 11.7 7.9 12.5 9 13.2 10.4 14.9 9.8 15.7 8.8 15.8 8.6ZM12.1 10.8C11.3 9.4 10.5 8.2 10.3 7.9 8.9 8.6 7.9 9.9 7.5 11.4L7.5 11.4C8.1 11.4 10 11.3 12.1 10.8ZM14.5 13.1C15.1 14.8 15.4 16.2 15.4 16.7 16.5 15.9 17.3 14.7 17.5 13.4 17.3 13.3 16.5 13.1 15.5 13.1 15.1 13.1 14.8 13.1 14.5 13.1ZM12.5 0C5.6 0 0 5.6 0 12.5 0 19.4 5.6 25 12.5 25 19.4 25 25 19.4 25 12.5 25 5.6 19.4 0 12.5 0ZM12.5 18.6C9.1 18.6 6.4 15.9 6.4 12.5 6.4 9.1 9.1 6.4 12.5 6.4 15.9 6.4 18.6 9.1 18.6 12.5 18.6 15.9 15.9 18.6 12.5 18.6ZM13.7 11.3C13.8 11.5 13.9 11.8 14 12 14 12.1 14.1 12.1 14.1 12.2 14.5 12.2 14.9 12.1 15.3 12.1 16.4 12.1 17.3 12.3 17.6 12.4 17.6 11.3 17.2 10.2 16.5 9.3 16.3 9.6 15.4 10.6 13.7 11.3Z"/></g></g></svg>
