<svg xmlns="http://www.w3.org/2000/svg" width="25" height="25" viewBox="0 0 25 25"><g fill="none"><g fill="#171515"><path d="M12.5 12.4L12.5 12.4 12.5 12.4C10.9 12.4 9.6 12 8.8 12.8 8.3 13.2 8.1 13.8 8.1 14.3 8.1 16.8 10 17 12.5 17L12.5 17C15 17 16.9 16.8 16.9 14.3 16.9 13.8 16.7 13.2 16.2 12.8 15.4 12 14.1 12.4 12.5 12.4ZM10.4 15.7C9.9 15.7 9.6 15.2 9.6 14.5 9.6 13.9 9.9 13.4 10.4 13.4 10.9 13.4 11.3 13.9 11.3 14.5 11.3 15.2 10.9 15.7 10.4 15.7ZM14.6 15.7C14.1 15.7 13.7 15.2 13.7 14.5 13.7 13.9 14.1 13.4 14.6 13.4 15.1 13.4 15.4 13.9 15.4 14.5 15.4 15.2 15.1 15.7 14.6 15.7ZM12.5 0C5.6 0 0 5.6 0 12.5 0 19.4 5.6 25 12.5 25 19.4 25 25 19.4 25 12.5 25 5.6 19.4 0 12.5 0ZM13.6 17.6C13.4 17.6 13 17.6 12.5 17.6 12 17.6 11.6 17.6 11.4 17.6 10.4 17.6 6.4 17.6 6.4 12.8 6.4 11.7 6.8 10.9 7.4 10.3 7.3 10 7.3 8.7 7.8 7.4 7.8 7.4 9 7.5 10.8 8.7 11.2 8.6 11.9 8.6 12.5 8.6 13.1 8.6 13.8 8.6 14.2 8.7 16 7.5 17.2 7.4 17.2 7.4 17.7 8.7 17.7 10 17.6 10.3 18.2 10.9 18.6 11.7 18.6 12.8 18.6 17.6 14.6 17.6 13.6 17.6Z"/></g></g></svg>
