<svg xmlns="http://www.w3.org/2000/svg" width="25" height="25" viewBox="0 0 25 25"><g fill="none"><g fill="#4DA4FA"><path d="M12.5 0C5.6 0 0 5.6 0 12.5 0 19.4 5.6 25 12.5 25 19.4 25 25 19.4 25 12.5 25 5.6 19.4 0 12.5 0ZM17.6 10.2C17.6 10.3 17.6 10.5 17.6 10.6 17.6 13.8 15.1 17.6 10.6 17.6 9.2 17.6 7.9 17.2 6.8 16.5 7 16.5 7.2 16.5 7.4 16.5 8.6 16.5 9.6 16.1 10.5 15.4 9.4 15.4 8.5 14.7 8.2 13.7 8.3 13.8 8.5 13.8 8.6 13.8 8.8 13.8 9.1 13.7 9.3 13.7 8.1 13.5 7.3 12.5 7.3 11.3L7.3 11.2C7.6 11.4 8 11.5 8.4 11.5 7.7 11.1 7.3 10.4 7.3 9.5 7.3 9 7.4 8.6 7.6 8.3 8.9 9.8 10.7 10.7 12.7 10.8 12.7 10.7 12.7 10.5 12.7 10.3 12.7 8.9 13.8 7.8 15.1 7.8 15.8 7.8 16.5 8.1 16.9 8.6 17.5 8.5 18 8.3 18.5 8 18.3 8.6 17.9 9 17.4 9.4 17.9 9.3 18.4 9.2 18.8 9 18.5 9.5 18.1 9.9 17.6 10.2Z"/></g></g></svg>
